<svg width="48" height="32" viewBox="0 0 48 32" fill="none" xmlns="http://www.w3.org/2000/svg">
<g id="bitcoin-outline-large">
<path id="card_bg-2" fill-rule="evenodd" clip-rule="evenodd" d="M4 0H44C46.2091 0 48 1.79086 48 4V28C48 30.2091 46.2091 32 44 32H4C1.79086 32 0 30.2091 0 28V4C0 1.79086 1.79086 0 4 0ZM46 4C46 2.89543 45.1046 2 44 2H4C2.89543 2 2 2.89543 2 4V28C2 29.1046 2.89543 30 4 30H44C45.1046 30 46 29.1046 46 28V4Z" fill="#212B36"/>
<g id="bitcoin">
<path id="Path" d="M26 18.22C25.64 19.66 23.2 18.88 22.42 18.68L23.06 16.12C23.86 16.32 26.4 16.72 26 18.22Z" fill="#212B36"/>
<path id="Path_2" d="M26.38 14.46C26.06 15.78 24.02 15.12 23.38 14.96L23.96 12.62C24.6 12.8 26.72 13.1 26.38 14.46Z" fill="#212B36"/>
<path id="Shape" fill-rule="evenodd" clip-rule="evenodd" d="M13.7283 13.4394C15.1407 7.76482 20.8851 4.30906 26.56 5.72001C29.2884 6.39564 31.6358 8.12922 33.0842 10.5382C34.5326 12.9471 34.9628 15.8334 34.28 18.56C32.8648 24.2338 27.1187 27.6867 21.4445 26.273C15.7703 24.8592 12.3159 19.1139 13.7283 13.4394ZM27.2 16.2C28.0245 16.0257 28.6306 15.3213 28.68 14.48C28.88 13.08 27.82 12.32 26.34 11.88L26.82 9.96001L25.66 9.68001L25.2 11.54C25.1463 11.5266 25.0931 11.5132 25.0404 11.4998C24.7787 11.4337 24.5263 11.3699 24.26 11.32L24.72 9.44001L23.56 9.14001L23.08 11.06L22.34 10.88L20.74 10.48L20.44 11.72L21.28 11.94C21.4394 11.9552 21.5862 12.0334 21.6876 12.1574C21.7891 12.2813 21.8367 12.4407 21.82 12.6L21.28 14.78L20.52 17.78C20.4855 17.8888 20.4093 17.9794 20.308 18.0319C20.2067 18.0844 20.0887 18.0945 19.98 18.06C19.92 18.06 19.14 17.86 19.14 17.86L18.56 19.18L20.08 19.56L20.9 19.78L20.42 21.7L21.58 22L22.08 20.08C22.3822 20.1762 22.6893 20.2563 23 20.32L22.52 22.22L23.68 22.5L24.16 20.58C26.14 20.94 27.64 20.8 28.26 19C28.5263 18.4933 28.5627 17.8968 28.36 17.3615C28.1574 16.8262 27.7351 16.4033 27.2 16.2Z" fill="#212B36"/>
</g>
</g>
</svg>
