<svg width="48" height="32" viewBox="0 0 48 32" fill="none" xmlns="http://www.w3.org/2000/svg">
<path fill-rule="evenodd" clip-rule="evenodd" d="M20.4791 10.7155C20.4791 9.64472 19.5954 9.17887 18.8904 8.80723C18.419 8.55877 18.0276 8.35242 18.0335 8.03556C18.0335 7.78661 18.2678 7.52301 18.7657 7.46444C19.3574 7.40856 19.9534 7.50958 20.4937 7.75732L20.8012 6.29289C20.2807 6.10097 19.7305 6.00184 19.1757 6C17.433 6 16.2469 6.92259 16.2469 8.24059C16.2469 9.19757 17.1083 9.69515 17.7649 10.0745L17.7845 10.0858C18.4435 10.4665 18.6925 10.6276 18.6925 10.9205C18.6925 11.2134 18.1506 11.5795 17.6527 11.5795C17.0234 11.6074 16.3976 11.4712 15.8368 11.1841L15.5146 12.6485C16.1392 12.8753 16.7979 12.9942 17.4623 13C19.3075 13 20.5084 12.0921 20.5084 10.6862L20.4791 10.7155ZM15.7343 6.14645L14.2699 12.9268H12.5272L13.9917 6.14645H15.7343ZM23.0565 10.5397L23.9791 7.99161L24.6234 10.5251L23.0565 10.5397ZM26.6297 12.9414H25.0188L24.7699 11.9309H22.5293L22.1632 12.9414H20.318L22.954 6.65898C23.0788 6.35681 23.3739 6.16008 23.7008 6.16107H25.1653L26.6297 12.9414ZM10.3891 12.9268L13.2301 6.14645H11.4435L9.48117 10.7594L8.73431 6.84938C8.67642 6.44823 8.33416 6.14953 7.92887 6.14645H5V6.35147C5.5665 6.47941 6.11672 6.671 6.64017 6.9226C6.86793 7.04239 7.02152 7.26728 7.05021 7.52302L8.51464 12.9268H10.3891Z" fill="#212B36"/>
<path fill-rule="evenodd" clip-rule="evenodd" d="M4 0H44C46.2091 0 48 1.79086 48 4V28C48 30.2091 46.2091 32 44 32H4C1.79086 32 0 30.2091 0 28V4C0 1.79086 1.79086 0 4 0ZM46 4C46 2.89543 45.1046 2 44 2H4C2.89543 2 2 2.89543 2 4V28C2 29.1046 2.89543 30 4 30H44C45.1046 30 46 29.1046 46 28V4Z" fill="#212B36"/>
<path d="M32.691 26.0346C30.4615 27.1616 27.7477 26.5788 26.1776 24.6356C24.6075 22.6925 24.6075 19.9167 26.1776 17.9736C27.7477 16.0305 30.4615 15.4476 32.691 16.5746C31.3346 17.7703 30.5646 19.4964 30.581 21.3046C30.5777 23.11 31.3454 24.831 32.691 26.0346V26.0346Z" fill="#212B36"/>
<path d="M42.1611 21.3045C42.1609 23.1452 41.2057 24.854 39.6378 25.8184C38.0699 26.7828 36.114 26.8646 34.4711 26.0345C36.9757 23.8197 37.3219 20.0373 35.2611 17.4045C35.023 17.1016 34.755 16.8236 34.4611 16.5745C36.1048 15.7397 38.0643 15.819 39.6352 16.784C41.2061 17.749 42.1626 19.4609 42.1611 21.3045V21.3045Z" fill="#212B36"/>
<path d="M33.5811 25.4745C32.3003 24.4698 31.5523 22.9323 31.5523 21.3045C31.5523 19.6767 32.3003 18.1392 33.5811 17.1345C34.8583 18.1414 35.6036 19.6781 35.6036 21.3045C35.6036 22.9309 34.8583 24.4676 33.5811 25.4745V25.4745Z" fill="#212B36"/>
</svg>
