<svg width="124" height="124" viewBox="0 0 124 124" fill="none" xmlns="http://www.w3.org/2000/svg">
<g clip-path="url(#clip0)">
<path d="M121.325 10.925L112.825 2.52599C110.525 0.225994 106.725 0.225994 104.325 2.52599L61.9248 44.925L18.7257 1.72599C16.4247 -0.575006 12.6247 -0.575006 10.2257 1.72599L1.72575 10.226C-0.57525 12.526 -0.57525 16.326 1.72575 18.726L44.8258 61.826L2.52575 104.326C0.22575 106.626 0.22575 110.426 2.52575 112.826L11.0258 121.326C13.3258 123.626 17.1257 123.626 19.5257 121.326L61.9248 78.926L104.325 121.326C106.625 123.626 110.425 123.626 112.825 121.326L121.325 112.826C123.625 110.526 123.625 106.726 121.325 104.326L78.8247 61.926L121.225 19.527C123.625 17.125 123.625 13.325 121.325 10.925Z" fill="black"/>
</g>
<defs>
<clipPath id="clip0">
<rect width="123.05" height="123.05" fill="white"/>
</clipPath>
</defs>
</svg>
