<svg width="48" height="32" viewBox="0 0 48 32" fill="none" xmlns="http://www.w3.org/2000/svg">
<g id="mastercard-outline-large">
<path id="card_bg-2" fill-rule="evenodd" clip-rule="evenodd" d="M4 0H44C46.2091 0 48 1.79086 48 4V28C48 30.2091 46.2091 32 44 32H4C1.79086 32 0 30.2091 0 28V4C0 1.79086 1.79086 0 4 0ZM46 4C46 2.89543 45.1046 2 44 2H4C2.89543 2 2 2.89543 2 4V28C2 29.1046 2.89543 30 4 30H44C45.1046 30 46 29.1046 46 28V4Z" fill="#212B36"/>
<g id="mastercard">
<g id="Group" opacity="0.01">
<rect id="Rectangle" x="4.65" y="3.20001" width="38.7" height="25.6" fill="#212B36"/>
</g>
<path id="Path" d="M22.22 25.46C17.7565 27.7268 12.316 26.5653 9.1673 22.6734C6.01862 18.7816 6.01862 13.2184 9.1673 9.32658C12.316 5.43475 17.7565 4.27326 22.22 6.54C19.4859 8.92119 17.9236 12.3744 17.94 16C17.9472 19.6205 19.5053 23.0645 22.22 25.46Z" fill="#212B36"/>
<path id="Shape" fill-rule="evenodd" clip-rule="evenodd" d="M40.14 22.23V22.57H40.08V22.23H39.94V22.16H40.29V22.23H40.14ZM40.82 22.16V22.57H40.75V22.26L40.64 22.53H40.56L40.44 22.26V22.57H40.36V22.16H40.47L40.59 22.45L40.72 22.16H40.82Z" fill="#212B36"/>
<path id="Path_2" d="M41.16 16C41.1596 19.6814 39.2492 23.099 36.1135 25.0277C32.9777 26.9565 29.0659 27.1201 25.78 25.46C30.7893 21.0303 31.4818 13.4655 27.36 8.19999C26.8839 7.59419 26.3479 7.03803 25.76 6.53999C29.047 4.86418 32.9693 5.01993 36.113 6.95111C39.2568 8.88228 41.1689 12.3105 41.16 16Z" fill="#212B36"/>
<path id="Path_3" d="M24 24.34C21.4385 22.3306 19.9425 19.2556 19.9425 16C19.9425 12.7444 21.4385 9.66941 24 7.66C26.558 9.67162 28.0513 12.7458 28.0513 16C28.0513 19.2542 26.558 22.3284 24 24.34Z" fill="#212B36"/>
</g>
</g>
</svg>
