<svg width="48" height="32" viewBox="0 0 48 32" fill="none" xmlns="http://www.w3.org/2000/svg">
<g id="paypal-outline-large">
<path id="card_bg-2" fill-rule="evenodd" clip-rule="evenodd" d="M4 0H44C46.2091 0 48 1.79086 48 4V28C48 30.2091 46.2091 32 44 32H4C1.79086 32 0 30.2091 0 28V4C0 1.79086 1.79086 0 4 0ZM46 4C46 2.89543 45.1046 2 44 2H4C2.89543 2 2 2.89543 2 4V28C2 29.1046 2.89543 30 4 30H44C45.1046 30 46 29.1046 46 28V4Z" fill="#212B36"/>
<g id="paypal">
<path id="Path" d="M32.34 15.5C31.62 19.18 29.16 20.44 26.04 20.44H25.54C25.158 20.441 24.8345 20.722 24.78 21.1V21.32L24.18 25.18V25.34C24.1203 25.7234 23.7879 26.0046 23.4 26H20.1C19.9615 26.0059 19.8281 25.9477 19.7382 25.8422C19.6484 25.7367 19.6121 25.5957 19.64 25.46L19.9 23.78L21.34 14.65L21.87 15.4L20.34 25.32H23.34C23.34 25.32 23.4 25.32 23.42 25.32C23.44 25.32 23.42 25.32 23.42 25.24V25.1L24.04 21.22V21.02C24.1004 20.6779 24.277 20.3671 24.54 20.14C24.8021 19.9146 25.1344 19.7873 25.48 19.78H26C26.6728 19.7823 27.3437 19.7085 28 19.56C28.586 19.4119 29.1412 19.1614 29.64 18.82C30.1246 18.4651 30.5327 18.0162 30.84 17.5C31.2151 16.8431 31.4723 16.1256 31.6 15.38C31.7386 14.7702 31.7724 14.1412 31.7 13.52C31.6273 13.0483 31.4267 12.6056 31.12 12.24C30.9747 12.0684 30.7983 11.9259 30.6 11.82C30.6 11.7 30.66 11.58 30.68 11.46L30.74 11.1C31.0731 11.2698 31.3716 11.5005 31.62 11.78C32.4345 12.8365 32.7014 14.2159 32.34 15.5Z" fill="#212B36"/>
<path id="Path_2" d="M29.94 10.74L29.56 10.64L29.14 10.56C28.6105 10.4808 28.0754 10.444 27.54 10.45H22.66C22.546 10.4469 22.4329 10.4709 22.33 10.52C22.0981 10.6286 21.9365 10.8466 21.9 11.1L20.9 17.67V17.86C20.9689 17.4276 21.3421 17.1095 21.78 17.11H23.6C27.18 17.11 29.99 15.65 30.81 11.45L30.87 11.08C30.6546 10.9687 30.4306 10.875 30.2 10.8L29.94 10.74Z" fill="#212B36"/>
<path id="Path_3" d="M30.8 11.08C30.5948 10.9744 30.3806 10.8874 30.16 10.82C30.2633 10.2917 30.2633 9.74833 30.16 9.22C30.0329 8.7565 29.7843 8.33534 29.44 8C28.7 7.14 27.28 6.72 25.22 6.72H19C18.954 6.70857 18.906 6.70857 18.86 6.72C18.8203 6.75549 18.7983 6.80675 18.8 6.86L16.22 23.1H20L19.9 23.78H16.06C15.9041 23.7793 15.7564 23.71 15.6562 23.5906C15.556 23.4711 15.5135 23.3136 15.54 23.16L18.12 6.76C18.1883 6.32575 18.5604 6.00442 19 6H25.22C27.36 6 29 6.46 30 7.5C30.8304 8.49351 31.1285 9.82752 30.8 11.08Z" fill="#212B36"/>
</g>
</g>
</svg>
